<?xml version="1.0" encoding="UTF-8" standalone="no"?>
<svg
   width="100px"
   height="100px"
   viewBox="0 0 100 100"
   version="1.1"
   id="svg18"
   sodipodi:docname="icon.svg"
   inkscape:version="1.2.2 (732a01da63, 2022-12-09, custom)"
   xml:space="preserve"
   xmlns:inkscape="http://www.inkscape.org/namespaces/inkscape"
   xmlns:sodipodi="http://sodipodi.sourceforge.net/DTD/sodipodi-0.dtd"
   xmlns:xlink="http://www.w3.org/1999/xlink"
   xmlns="http://www.w3.org/2000/svg"
   xmlns:svg="http://www.w3.org/2000/svg"
   xmlns:rdf="http://www.w3.org/1999/02/22-rdf-syntax-ns#"
   xmlns:cc="http://creativecommons.org/ns#"
   xmlns:dc="http://purl.org/dc/elements/1.1/"><metadata
     id="metadata22"><rdf:RDF><cc:Work
         rdf:about=""><dc:format>image/svg+xml</dc:format><dc:type
           rdf:resource="http://purl.org/dc/dcmitype/StillImage" /><dc:title>eclispe-che</dc:title></cc:Work></rdf:RDF></metadata><sodipodi:namedview
     pagecolor="#ffffff"
     bordercolor="#666666"
     borderopacity="1"
     objecttolerance="10"
     gridtolerance="10"
     guidetolerance="10"
     inkscape:pageopacity="0"
     inkscape:pageshadow="2"
     inkscape:window-width="1994"
     inkscape:window-height="1029"
     id="namedview20"
     showgrid="false"
     inkscape:pagecheckerboard="true"
     inkscape:zoom="4.8511517"
     inkscape:cx="54.007794"
     inkscape:cy="46.896081"
     inkscape:window-x="116"
     inkscape:window-y="258"
     inkscape:window-maximized="0"
     inkscape:current-layer="layer1"
     inkscape:showpageshadow="2"
     inkscape:deskcolor="#d1d1d1" /><!-- Generator: Sketch 45.2 (43514) - http://www.bohemiancoding.com/sketch --><title
     id="title2">eclispe-che</title><desc
     id="desc4">Created with Sketch.</desc><defs
     id="defs7"><path
       d="M50.0004412,4.04252804e-14 C22.3871247,4.04252804e-14 0,22.3848726 0,49.9995588 C0,77.6133626 22.3871247,100 50.0004412,100 C77.6137577,100 100,77.6133626 100,49.9995588 C100,22.3848726 77.6128753,3.55271368e-14 50.0004412,4.04252804e-14 Z"
       id="path-1" /></defs><g
     inkscape:groupmode="layer"
     id="layer1"
     inkscape:label="BACKGROUND"><g
       style="fill:#ffffff;fill-opacity:1;fill-rule:evenodd;stroke:none;stroke-width:1;stroke-opacity:1"
       id="Page-1"><g
         id="eclispe-che"
         style="fill:#ffffff;fill-opacity:1;stroke:none;stroke-opacity:1"><g
           id="path3023-path"
           style="fill:#ffffff;fill-opacity:1;stroke:none;stroke-opacity:1"><use
             xlink:href="#path-1"
             id="use9"
             style="fill:#ffffff;fill-opacity:1;fill-rule:evenodd;stroke:none;stroke-opacity:1"
             x="0"
             y="0"
             width="100%"
             height="100%" /><path
             d="M 50.000441,0.5 C 22.662621,0.5 0.5,22.661661 0.5,49.999559 0.5,77.337051 22.663098,99.5 50.000441,99.5 77.337613,99.5 99.5,77.337222 99.5,49.999559 99.5,22.661796 77.337514,0.5 50.000441,0.5 Z"
             id="path11"
             style="fill:#ffffff;fill-opacity:1;stroke:none;stroke-width:1;stroke-opacity:1"
             inkscape:connector-curvature="0" /></g></g></g><g
       id="g214"
       transform="matrix(0.22536032,0,0,0.22536032,4.1777425,10.975778)"><path
         d="m 384.195,282.109 c 0,3.771 -2.769,6.302 -6.047,6.302 v -0.023 c -3.371,0.023 -6.089,-2.508 -6.089,-6.278 0,-3.769 2.718,-6.293 6.089,-6.293 3.279,-0.001 6.047,2.523 6.047,6.292 z m 2.453,0 c 0,-5.176 -4.02,-8.18 -8.5,-8.18 -4.511,0 -8.531,3.004 -8.531,8.18 0,5.172 4.021,8.188 8.531,8.188 4.48,0 8.5,-3.016 8.5,-8.188 m -9.91,0.692 h 0.91 l 2.109,3.703 h 2.315 l -2.336,-3.859 c 1.207,-0.086 2.2,-0.66 2.2,-2.285 0,-2.02 -1.393,-2.668 -3.75,-2.668 h -3.411 v 8.812 h 1.961 l 0.002,-3.703 m 0,-1.492 v -2.121 h 1.364 c 0.742,0 1.753,0.06 1.753,0.965 0,0.984 -0.523,1.156 -1.398,1.156 h -1.719 m -47.332,-44.282 10.598,28.992 H 318.48 Z m -11.35,-11.289 -24.423,61.88 h 17.245 l 3.863,-10.935 h 28.903 l 3.656,10.935 h 18.722 L 341.417,225.73 Z m -49.033,61.903 h 17.497 v -61.922 l -17.5,-0.004 z m -121.467,-61.926 -14.598,49.078 -13.984,-49.074 -18.879,-0.004 19.972,61.926 h 25.207 l 20.133,-61.926 z m 70.725,13.484 h 7.521 c 10.909,0 17.966,4.898 17.966,17.609 0,12.713 -7.057,17.612 -17.966,17.612 h -7.521 z m -17.35,-13.484 v 61.926 h 28.365 c 15.113,0 20.049,-2.512 25.385,-8.147 3.769,-3.957 6.207,-12.642 6.207,-22.134 0,-8.707 -2.063,-16.469 -5.66,-21.305 -6.48,-8.648 -15.816,-10.34 -29.75,-10.34 z M 35.188,225.629 v 62.012 h 17.645 v -47.086 l 13.672,0.004 c 4.527,0 7.754,1.129 9.934,3.457 2.765,2.945 3.894,7.699 3.894,16.396 v 27.229 h 17.098 v -34.262 c 0,-24.453 -15.586,-27.75 -30.836,-27.75 z m 137.583,0.086 0.007,61.926 h 17.489 v -61.926 z"
         id="path20" /><path
         d="m 82.211,102.414 c 0,0 22.504,-33.203 67.437,-36.638 V 53.73 c -49.769,3.997 -92.867,46.149 -92.867,46.149 0,0 24.41,70.564 92.867,77.026 V 164.101 C 99.411,157.781 82.211,102.414 82.211,102.414 Z m 67.437,36.223 v 11.727 c -37.968,-6.77 -48.507,-46.237 -48.507,-46.237 0,0 18.23,-20.195 48.507,-23.47 v 12.867 c -0.023,0 -0.039,-0.007 -0.058,-0.007 -15.891,-1.907 -28.305,12.938 -28.305,12.938 0,0 6.958,24.99 28.363,32.182 m 0,-107.125 V 53.73 c 1.461,-0.112 2.922,-0.207 4.391,-0.257 56.582,-1.907 93.449,46.406 93.449,46.406 0,0 -42.343,51.488 -86.457,51.488 -4.043,0 -7.828,-0.375 -11.383,-1.005 v 13.739 a 75.04,75.04 0 0 0 9.481,0.612 c 41.051,0 70.738,-20.965 99.484,-45.778 4.766,3.817 24.278,13.103 28.289,17.167 -27.332,22.884 -91.031,41.33 -127.144,41.33 -3.481,0 -6.824,-0.211 -10.11,-0.528 V 196.21 H 305.68 V 31.512 Z m 0,49.144 V 65.777 c 1.446,-0.101 2.903,-0.179 4.391,-0.226 40.688,-1.278 67.382,34.965 67.382,34.965 0,0 -28.832,40.042 -59.746,40.042 -4.449,0 -8.438,-0.715 -12.028,-1.922 V 93.523 c 15.84,1.914 19.028,8.911 28.551,24.786 l 21.181,-17.859 c 0,0 -15.461,-20.277 -41.524,-20.277 -2.834,-0.001 -5.545,0.198 -8.207,0.483"
         fill="#77b900"
         id="path22" /></g></g><g
     inkscape:groupmode="layer"
     id="layer2"
     inkscape:label="PLACE LOGO HERE" /></svg>
